<svg xmlns="http://www.w3.org/2000/svg" viewBox="0 0 24 24" id="3-m"><path d="M5.494 18.25c-1.776 0-3.155-.481-4.106-1.43C.467 15.901 0 14.597 0 12.943a.5.5 0 0 1 .5-.5h3.324a.5.5 0 0 1 .5.484c.014.423.076.764.184 1.014.222.517.795.634 1.25.574a.805.805 0 0 0 .692-.616c.035-.162.035-.468-.349-.704a1.127 1.127 0 0 0-.467-.161l-.334.004a.5.5 0 0 1-.5-.5v-2.231c0-.133.053-.26.147-.354s.241-.116.354-.146h.769c.59-.062.588-.254.586-.381.007-.17-.031-.277-.118-.365-.15-.153-.433-.238-.769-.232-.414.011-.919.196-1.046.575-.038.114-.06.251-.066.406a.5.5 0 0 1-.5.482H.947a.502.502 0 0 1-.499-.529C.623 6.768 2.424 5.25 5.8 5.25h.025c1.712.021 3.078.489 3.966 1.326v-.608a.5.5 0 0 1 .5-.5h4.979a.5.5 0 0 1 .485.379l1.168 4.699 1.125-4.695a.5.5 0 0 1 .486-.383H23.5a.5.5 0 0 1 .5.5v11.505a.5.5 0 0 1-.5.5h-3.331a.5.5 0 0 1-.5-.502l.013-3.131-.838 3.257a.5.5 0 0 1-.484.375h-2.893a.5.5 0 0 1-.485-.378l-.808-3.221v3.1a.5.5 0 0 1-.5.5h-3.382a.5.5 0 0 1-.5-.5v-.588c-1.013.859-2.511 1.341-4.274 1.365h-.024zm-4.477-4.807c.08 1.138.441 2.035 1.077 2.669.761.758 1.93 1.138 3.417 1.138 1.597-.021 3.571-.537 4.303-1.918.108-.203.359-.339.581-.286.223.056.397.221.397.45v1.478h2.382v-6.65a.5.5 0 0 1 .439-.496.495.495 0 0 1 .546.375l1.698 6.772h2.115l1.742-6.771a.5.5 0 0 1 .984.126l-.027 6.645H23V6.468h-4.068L17.42 12.77a.5.5 0 0 1-.484.383h-.002a.5.5 0 0 1-.485-.379L14.88 6.468h-4.088v1.838a.501.501 0 0 1-.979.144c-.584-1.948-2.988-2.187-3.995-2.2h-.025c-2.647 0-3.994.944-4.295 3.042h2.219c.016-.071.035-.14.057-.206.248-.736 1.02-1.23 1.966-1.258.613-.007 1.161.176 1.51.53.284.287.423.662.405 1.082.006.433-.185 1.227-1.535 1.364H5.8v1.247c.317.046.587.146.825.293.642.396.949 1.071.802 1.763a1.807 1.807 0 0 1-1.537 1.399c-1.032.137-1.935-.321-2.301-1.17a3.237 3.237 0 0 1-.228-.894H1.017zm9.275.401a.501.501 0 0 1-.37-.163l-1.397-1.534a.5.5 0 0 1-.021-.649L9.901 9.75a.5.5 0 0 1 .89.312v3.282a.499.499 0 0 1-.499.5zm-.74-2.055.24.264v-.564l-.24.3z"></path></svg>