<svg xmlns="http://www.w3.org/2000/svg" xmlns:xlink="http://www.w3.org/1999/xlink" width="1080" zoomAndPan="magnify" viewBox="0 0 810 809.999993" height="1080" preserveAspectRatio="xMidYMid meet" version="1.0"><path fill="#ffffff" d="M 213.332031 570.828125 C 216.851562 560.015625 212.578125 547.1875 215.34375 535.617188 C 216.351562 530.839844 218.109375 513.734375 219.867188 503.425781 C 220.875 497.890625 214.839844 496.128906 213.835938 493.867188 C 207.300781 473.496094 255.050781 425.960938 257.816406 424.199219 C 262.089844 421.683594 266.109375 419.421875 270.382812 416.90625 C 282.949219 412.628906 297.773438 400.304688 309.085938 408.101562 C 328.6875 378.925781 320.894531 342.960938 331.453125 338.9375 C 342.007812 334.660156 373.421875 326.109375 391.265625 337.175781 C 402.070312 345.226562 401.316406 358.808594 406.089844 370.125 C 408.855469 375.40625 410.363281 383.203125 413.632812 386.722656 C 424.941406 398.546875 439.265625 400.558594 455.097656 402.570312 C 456.355469 402.820312 457.609375 399.550781 458.867188 399.804688 C 485.507812 409.109375 516.667969 411.875 547.078125 463.433594 C 551.351562 470.726562 562.910156 482.800781 559.140625 491.351562 C 584.523438 549.953125 609.402344 683.253906 539.789062 716.453125 C 537.527344 717.960938 522.449219 710.164062 519.9375 710.414062 C 515.914062 710.414062 523.707031 720.476562 519.9375 718.714844 C 492.292969 720.726562 340.246094 715.445312 281.941406 720.726562 C 241.984375 720.476562 216.601562 727.519531 207.300781 720.476562 C 211.070312 711.421875 210.820312 701.863281 209.5625 692.558594 C 201.019531 686.269531 211.574219 641.503906 210.570312 628.425781 C 202.777344 618.617188 209.3125 582.902344 213.332031 570.828125 Z M 213.332031 570.828125 " fill-opacity="1" fill-rule="evenodd"/><path fill="#000000" d="M 225.898438 505.4375 C 229.667969 510.96875 233.1875 516.753906 236.453125 522.789062 C 238.214844 525.808594 239.722656 529.078125 240.976562 532.097656 C 241.230469 525.054688 241.230469 518.261719 242.234375 511.222656 C 242.234375 510.71875 243.238281 510.464844 243.238281 510.96875 C 244.246094 517.257812 244.246094 523.546875 244.496094 529.832031 C 245 529.832031 245.25 529.582031 245.753906 529.582031 C 250.277344 529.582031 254.800781 529.832031 259.324219 530.335938 C 261.335938 530.585938 263.597656 530.585938 265.605469 530.839844 C 263.847656 529.078125 262.339844 527.066406 260.832031 525.054688 C 259.324219 523.042969 257.566406 519.773438 260.328125 517.761719 C 263.09375 515.496094 268.621094 518.515625 271.386719 519.519531 C 272.894531 520.023438 274.152344 520.777344 275.410156 521.28125 C 277.167969 516.503906 282.195312 516 286.71875 516.503906 C 289.984375 517.003906 293 518.011719 296.015625 518.765625 C 300.035156 519.773438 303.808594 520.777344 307.828125 521.785156 C 314.863281 523.546875 322.152344 524.800781 329.441406 526.058594 C 329.691406 525.808594 329.945312 525.558594 330.195312 525.558594 C 332.707031 525.054688 335.472656 525.304688 337.984375 525.558594 C 340.5 525.558594 343.261719 525.558594 345.777344 525.558594 C 350.550781 525.558594 355.074219 525.304688 359.851562 525.304688 C 361.105469 524.550781 362.867188 523.292969 363.367188 521.785156 C 363.871094 520.023438 362.363281 517.761719 361.609375 516.25 C 358.84375 510.214844 357.839844 503.171875 358.84375 496.382812 C 359.097656 495.125 359.347656 493.867188 360.101562 492.609375 C 355.074219 493.113281 350.046875 493.617188 344.769531 493.617188 C 334.46875 493.867188 324.414062 494.371094 314.109375 494.371094 C 293.753906 494.621094 273.148438 494.621094 252.789062 494.371094 C 241.230469 494.371094 229.667969 494.117188 218.109375 493.617188 C 219.113281 494.871094 219.867188 496.128906 220.875 497.386719 C 221.125 497.386719 221.375 497.386719 221.375 497.640625 C 221.375 497.640625 221.375 497.890625 221.375 497.890625 C 222.882812 500.65625 224.390625 503.171875 225.898438 505.4375 M 248.769531 717.207031 C 253.542969 716.957031 258.320312 716.957031 263.09375 716.703125 C 272.390625 716.453125 281.691406 716.199219 290.988281 715.699219 C 309.585938 715.195312 327.933594 714.691406 346.53125 714.1875 C 364.875 713.683594 383.472656 713.183594 401.820312 713.683594 C 420.417969 714.1875 438.761719 715.699219 457.109375 716.957031 C 467.410156 717.710938 477.714844 718.210938 488.019531 718.464844 C 497.820312 718.714844 507.621094 718.210938 517.421875 718.96875 C 517.675781 716.453125 517.421875 714.1875 517.421875 711.671875 C 514.15625 709.914062 511.140625 707.902344 507.875 705.890625 C 496.5625 698.847656 485.757812 690.796875 475.707031 681.996094 C 474.199219 680.738281 472.691406 679.230469 471.183594 677.972656 C 472.1875 680.234375 471.433594 683.253906 468.417969 684.257812 C 464.648438 685.515625 460.878906 685.011719 457.109375 685.011719 C 453.339844 685.011719 449.316406 684.761719 445.546875 684.761719 C 438.007812 684.511719 430.46875 684.511719 422.929688 684.257812 C 408.101562 684.007812 393.273438 683.757812 378.699219 683.757812 C 349.042969 683.503906 319.136719 684.007812 289.480469 684.511719 C 281.1875 684.761719 272.644531 684.761719 264.351562 684.761719 C 260.078125 684.761719 256.058594 684.761719 251.785156 684.511719 C 248.519531 684.257812 245 683.757812 241.730469 683.503906 C 241.230469 689.289062 240.976562 695.074219 240.476562 701.109375 C 240.222656 704.882812 239.722656 708.90625 239.46875 712.679688 C 239.21875 714.1875 239.21875 715.949219 239.21875 717.457031 C 242.234375 717.207031 245.503906 717.207031 248.769531 717.207031 M 245.503906 552.21875 C 245.503906 556.746094 245.753906 561.269531 245.753906 565.546875 C 246.257812 565.296875 246.507812 565.042969 247.011719 565.042969 C 252.289062 564.289062 257.816406 564.792969 263.09375 565.042969 C 268.121094 565.042969 273.398438 565.042969 278.425781 565.296875 C 283.449219 565.546875 288.726562 565.796875 293.753906 566.050781 C 296.265625 566.050781 298.527344 566.300781 300.792969 566.554688 C 302.300781 566.804688 304.5625 566.804688 306.320312 567.308594 C 299.03125 560.265625 291.742188 553.222656 284.457031 546.179688 C 284.203125 545.929688 284.203125 545.679688 283.953125 545.425781 C 279.179688 542.40625 274.402344 539.136719 270.382812 535.367188 C 267.113281 536.625 263.34375 536.875 259.828125 537.125 C 255.304688 537.378906 250.78125 537.882812 246.257812 537.882812 C 246.003906 537.882812 245.753906 537.882812 245.503906 537.882812 C 245.25 542.660156 245.25 547.4375 245.503906 552.21875 M 434.488281 638.988281 C 423.433594 642.507812 411.367188 642.507812 399.808594 643.261719 C 387.496094 644.019531 375.179688 644.773438 362.867188 645.023438 C 338.238281 646.03125 313.609375 647.289062 288.980469 648.292969 C 274.90625 648.796875 260.832031 649.550781 246.757812 650.304688 C 245.753906 650.304688 244.75 650.054688 243.992188 649.550781 C 243.492188 658.855469 242.988281 668.164062 242.234375 677.46875 C 242.234375 678.726562 241.984375 679.730469 241.984375 680.988281 C 248.519531 680.234375 255.050781 679.480469 261.835938 678.726562 C 269.375 677.972656 276.917969 677.46875 284.203125 676.964844 C 298.78125 675.960938 313.355469 674.703125 328.183594 674.199219 C 358.089844 673.191406 387.996094 673.445312 417.902344 673.695312 C 426.449219 673.695312 434.742188 673.945312 443.285156 673.945312 C 447.558594 673.945312 451.832031 673.945312 455.851562 674.199219 C 460.125 674.199219 464.648438 673.695312 468.667969 675.203125 C 456.605469 664.136719 445.800781 651.3125 434.488281 638.988281 M 395.285156 602.265625 C 376.6875 605.535156 357.839844 605.535156 338.992188 605.789062 C 319.640625 606.039062 300.539062 605.789062 281.1875 606.039062 C 270.128906 606.039062 259.324219 606.542969 248.265625 605.535156 C 247.011719 605.535156 246.003906 605.035156 245.25 604.277344 C 245 615.847656 244.75 627.417969 244.246094 638.988281 C 245 638.734375 245.753906 638.484375 246.507812 638.484375 C 271.136719 636.976562 295.765625 635.71875 320.394531 634.964844 C 345.023438 634.207031 369.652344 633.203125 394.28125 633.453125 C 406.34375 633.707031 418.910156 632.953125 430.972656 635.464844 C 426.449219 630.6875 421.925781 625.910156 417.148438 621.382812 C 410.113281 614.84375 402.574219 608.804688 395.285156 602.265625 M 381.210938 588.6875 C 381.210938 588.6875 380.960938 588.6875 380.960938 588.6875 C 363.621094 588.183594 344.015625 593.714844 327.933594 585.417969 C 320.644531 581.644531 314.613281 575.605469 308.832031 570.074219 C 308.832031 570.074219 308.832031 570.074219 308.832031 570.324219 C 308.832031 570.828125 308.582031 571.332031 308.078125 571.582031 C 306.070312 572.335938 303.808594 572.589844 301.796875 572.839844 C 299.535156 573.09375 297.019531 573.34375 294.757812 573.59375 C 289.480469 573.847656 284.203125 574.351562 278.925781 574.601562 C 273.648438 574.851562 268.371094 574.851562 263.09375 575.105469 C 257.816406 575.355469 252.289062 575.859375 247.011719 575.105469 C 246.507812 575.105469 246.003906 574.851562 245.753906 574.601562 C 245.753906 581.390625 245.753906 588.183594 245.503906 594.972656 C 245.503906 595.980469 245.503906 597.238281 245.503906 598.242188 C 246.257812 597.488281 247.261719 597.238281 248.519531 596.984375 C 258.320312 596.230469 267.867188 596.484375 277.671875 596.484375 C 287.21875 596.484375 296.769531 596.484375 306.320312 596.484375 C 325.671875 596.484375 344.769531 596.734375 364.121094 596.984375 C 373.421875 597.238281 382.71875 597.992188 392.019531 599.5 C 388.25 595.980469 384.730469 592.457031 381.210938 588.6875 M 532.25 711.671875 C 535.769531 712.679688 539.289062 712.175781 542.804688 712.929688 C 543.058594 712.929688 543.308594 713.183594 543.308594 713.183594 C 553.863281 708.65625 561.152344 699.347656 565.925781 689.289062 C 570.953125 678.472656 574.722656 666.90625 576.984375 655.085938 C 581.761719 630.9375 581.761719 605.789062 579.246094 581.390625 C 576.734375 557.246094 571.957031 533.355469 564.921875 510.464844 C 560.148438 494.621094 553.863281 478.523438 545.320312 464.1875 C 535.519531 470.726562 527.726562 480.285156 520.691406 489.589844 C 512.144531 500.65625 504.355469 512.480469 497.316406 524.800781 C 498.324219 526.5625 498.324219 529.328125 498.828125 531.089844 C 499.582031 534.613281 500.082031 538.382812 500.585938 541.90625 C 501.589844 549.703125 502.597656 557.5 503.601562 565.296875 C 505.613281 580.636719 508.125 595.980469 510.636719 611.320312 C 510.890625 612.578125 510.386719 613.585938 509.882812 614.339844 C 515.160156 617.105469 520.4375 620.125 525.464844 623.140625 C 536.773438 630.183594 547.328125 638.234375 555.371094 648.796875 C 555.625 649.046875 555.371094 649.550781 554.871094 649.300781 C 537.277344 632.953125 515.160156 622.640625 493.546875 612.578125 C 482.492188 607.296875 471.433594 602.015625 460.878906 595.980469 C 449.820312 589.691406 439.265625 582.398438 429.210938 574.601562 C 417.652344 565.796875 406.84375 555.988281 396.542969 545.679688 C 395.285156 544.421875 395.535156 542.910156 396.542969 541.90625 C 396.289062 541.90625 396.039062 541.652344 396.039062 541.152344 C 395.789062 534.359375 393.777344 528.574219 389.757812 523.042969 C 385.988281 518.011719 381.210938 513.734375 377.191406 509.210938 C 375.179688 507.195312 373.421875 504.933594 371.914062 502.667969 C 370.152344 500.40625 369.148438 497.640625 367.890625 495.375 C 366.382812 492.359375 364.875 493.867188 364.121094 496.382812 C 363.117188 499.398438 363.367188 502.667969 363.621094 505.6875 C 364.121094 508.957031 364.875 511.976562 366.382812 514.992188 C 367.640625 517.761719 369.148438 520.527344 368.394531 523.546875 C 366.886719 528.574219 360.605469 531.59375 356.078125 532.851562 C 350.800781 534.109375 345.273438 533.855469 339.996094 533.101562 C 333.210938 532.347656 326.675781 531.089844 320.140625 529.832031 C 312.601562 528.324219 304.8125 526.5625 297.273438 524.550781 C 293.753906 523.546875 290.234375 522.539062 286.71875 521.53125 C 285.460938 521.28125 283.199219 520.777344 281.691406 521.53125 C 301.042969 533.101562 321.902344 540.648438 343.261719 547.4375 C 346.027344 548.191406 344.769531 552.21875 342.007812 551.714844 C 319.136719 546.179688 297.523438 535.617188 276.917969 524.300781 C 276.664062 524.046875 276.414062 523.796875 276.164062 523.546875 C 274.152344 522.789062 271.890625 522.289062 269.878906 521.785156 C 268.875 521.53125 264.097656 520.023438 263.34375 520.527344 C 262.589844 521.53125 265.605469 524.300781 266.359375 525.054688 C 271.636719 531.089844 278.171875 535.867188 284.957031 539.894531 C 291.996094 543.917969 299.535156 547.1875 306.824219 550.203125 C 315.117188 553.726562 324.164062 556.242188 332.207031 560.265625 C 335.472656 561.773438 333.210938 567.054688 329.691406 566.050781 C 325.167969 564.539062 320.894531 562.527344 316.625 560.769531 C 313.105469 559.257812 309.335938 557.75 305.816406 556.242188 C 303.304688 555.234375 300.789062 553.976562 298.277344 552.972656 C 302.046875 556.492188 305.816406 560.015625 309.335938 563.535156 C 315.871094 569.570312 321.902344 576.613281 329.691406 580.636719 C 337.484375 584.914062 346.277344 585.417969 354.824219 585.164062 C 359.097656 585.164062 363.367188 584.914062 367.890625 585.164062 C 372.414062 585.417969 376.4375 586.171875 380.707031 587.429688 C 380.707031 587.429688 380.960938 587.429688 380.960938 587.679688 C 381.210938 587.429688 381.460938 587.429688 381.714844 587.679688 C 393.527344 594.722656 404.082031 603.777344 414.386719 612.578125 C 424.941406 621.886719 434.992188 631.441406 444.542969 641.753906 C 453.589844 651.5625 462.636719 661.625 472.691406 670.675781 C 482.492188 679.480469 492.792969 687.527344 503.601562 695.074219 C 509.382812 699.097656 515.414062 703.121094 521.695312 706.644531 C 525.214844 708.65625 528.480469 710.414062 532.25 711.671875 M 531.246094 444.066406 C 526.972656 439.289062 522.449219 435.015625 517.675781 430.988281 C 515.664062 431.492188 513.402344 431.746094 511.140625 431.746094 C 507.621094 431.746094 504.355469 431.996094 500.835938 431.996094 C 494.300781 431.996094 487.769531 431.746094 481.234375 431.746094 C 467.914062 431.746094 454.34375 431.746094 441.023438 431.746094 C 439.265625 431.746094 438.007812 430.988281 437.253906 429.984375 C 434.488281 433 431.726562 436.019531 428.960938 439.039062 C 424.4375 443.816406 419.410156 448.34375 414.132812 452.621094 C 415.140625 452.621094 416.144531 452.621094 417.148438 452.621094 C 421.925781 452.621094 426.449219 452.621094 431.222656 452.621094 C 440.519531 452.621094 449.820312 452.621094 459.117188 452.621094 C 477.714844 452.621094 496.3125 452.621094 514.910156 453.625 C 519.9375 453.878906 525.214844 453.878906 530.242188 454.378906 C 533.003906 454.632812 535.769531 454.882812 538.535156 455.386719 C 539.035156 455.386719 539.539062 455.636719 540.292969 455.636719 C 537.277344 451.363281 534.261719 447.589844 531.246094 444.066406 M 456.855469 401.816406 C 456.855469 401.816406 457.109375 402.066406 457.359375 402.066406 C 457.609375 402.316406 457.609375 402.570312 457.359375 402.820312 C 456.855469 403.074219 456.605469 403.074219 456.101562 403.324219 C 454.59375 405.335938 453.589844 407.851562 452.835938 409.109375 C 450.574219 412.882812 448.0625 416.402344 445.546875 419.671875 C 445.046875 420.425781 444.542969 420.929688 444.039062 421.683594 C 456.605469 421.683594 468.917969 421.683594 481.484375 422.1875 C 488.019531 422.4375 494.554688 422.691406 501.089844 423.191406 C 503.601562 423.445312 506.113281 423.695312 508.878906 423.949219 C 494.804688 413.886719 479.222656 406.089844 462.886719 400.304688 C 463.140625 400.808594 462.636719 401.3125 462.386719 400.808594 C 460.375 399.300781 458.363281 400.054688 456.855469 401.816406 M 393.777344 520.777344 C 394.027344 521.28125 394.53125 521.785156 394.78125 522.539062 C 395.535156 521.785156 396.792969 521.28125 398.300781 521.03125 C 414.636719 520.527344 430.972656 520.023438 447.308594 520.023438 C 455.347656 520.023438 463.640625 519.773438 471.683594 520.023438 C 475.707031 520.277344 479.726562 520.527344 483.746094 520.777344 C 486.511719 521.03125 489.527344 521.03125 492.292969 522.035156 C 498.828125 510.96875 505.863281 500.15625 513.402344 490.09375 C 495.808594 492.359375 477.96875 492.105469 460.375 492.609375 C 440.773438 493.113281 420.667969 493.363281 400.8125 493.867188 C 395.285156 494.117188 389.757812 494.117188 384.476562 494.371094 C 381.714844 494.371094 378.949219 494.621094 375.933594 494.621094 C 374.929688 494.621094 374.175781 494.621094 373.167969 494.621094 C 373.167969 494.871094 373.421875 494.871094 373.421875 495.125 C 374.929688 498.394531 376.9375 501.160156 379.199219 503.925781 C 383.976562 509.460938 389.757812 514.492188 393.777344 520.777344 M 415.390625 555.234375 C 415.894531 553.472656 417.402344 552.21875 419.914062 552.46875 C 433.234375 552.972656 446.804688 553.472656 460.125 554.480469 C 466.65625 554.984375 473.191406 555.234375 479.726562 555.738281 C 482.992188 555.988281 486.511719 556.492188 489.777344 556.996094 C 492.039062 557.246094 494.554688 557.75 496.5625 558.503906 C 496.0625 553.726562 495.808594 549.199219 495.558594 544.421875 C 495.308594 540.648438 495.308594 536.875 495.308594 533.101562 C 495.308594 531.089844 495.308594 529.328125 495.558594 527.316406 C 495.308594 527.316406 495.054688 527.316406 495.054688 527.316406 C 494.804688 527.316406 494.300781 527.316406 494.050781 527.066406 C 491.035156 528.324219 487.515625 528.574219 484.25 528.828125 C 480.480469 529.078125 476.460938 529.328125 472.691406 529.582031 C 464.394531 530.085938 456.101562 530.085938 447.808594 530.335938 C 431.472656 530.839844 415.390625 531.089844 399.054688 531.59375 C 399.808594 534.863281 399.808594 538.132812 398.550781 541.402344 C 399.304688 541.152344 400.3125 541.152344 401.066406 542.15625 C 405.589844 546.433594 410.363281 550.960938 415.390625 555.234375 M 462.636719 589.691406 C 462.886719 588.6875 463.640625 587.929688 464.394531 587.429688 C 467.160156 585.164062 472.4375 586.421875 475.957031 586.671875 C 479.976562 586.925781 484 587.175781 488.019531 587.175781 C 489.277344 587.175781 495.558594 587.679688 500.082031 588.433594 C 499.078125 581.140625 498.324219 574.097656 497.570312 566.804688 C 497.320312 565.296875 497.320312 563.785156 497.066406 562.277344 C 494.804688 563.03125 492.542969 563.285156 490.28125 563.285156 C 487.015625 563.535156 483.496094 563.785156 480.230469 563.785156 C 473.445312 563.785156 466.910156 563.535156 460.125 563.535156 C 448.0625 563.285156 435.996094 562.78125 423.933594 562.277344 C 435.996094 572.085938 448.5625 581.140625 461.882812 589.1875 C 462.132812 589.441406 462.386719 589.441406 462.636719 589.691406 M 500.585938 593.96875 C 499.582031 594.21875 498.574219 594.21875 497.820312 594.21875 C 494.050781 594.46875 490.03125 594.972656 486.261719 594.972656 C 482.492188 594.972656 478.46875 594.972656 474.699219 595.226562 C 473.945312 595.226562 472.941406 595.226562 472.1875 595.226562 C 482.238281 600.757812 492.792969 605.789062 503.097656 611.070312 C 502.34375 605.285156 501.339844 599.5 500.585938 593.96875 M 389.757812 467.207031 C 366.636719 477.015625 336.730469 478.023438 316.875 461.675781 C 314.863281 462.175781 312.601562 462.429688 310.84375 462.679688 C 306.824219 463.183594 303.054688 463.433594 299.03125 463.6875 C 291.242188 463.9375 283.703125 464.1875 275.910156 464.441406 C 260.328125 464.691406 244.75 464.691406 229.167969 464.945312 C 227.910156 464.945312 226.90625 464.441406 225.898438 463.9375 C 224.390625 466.703125 222.882812 469.46875 221.628906 472.238281 C 219.617188 476.261719 218.109375 480.535156 216.601562 484.8125 C 216.851562 484.8125 217.105469 484.8125 217.605469 484.8125 C 238.214844 483.808594 258.820312 484.5625 279.179688 484.5625 C 299.535156 484.5625 320.140625 484.5625 340.5 484.8125 C 346.277344 484.8125 351.808594 484.8125 357.335938 485.316406 C 360.351562 485.566406 363.367188 485.566406 366.132812 486.070312 C 366.382812 486.070312 366.886719 486.070312 367.136719 486.320312 C 371.410156 483.808594 376.183594 484.308594 380.707031 484.308594 C 385.734375 484.308594 391.011719 484.058594 396.039062 484.058594 C 406.089844 483.808594 416.144531 483.808594 426.195312 483.808594 C 446.050781 483.554688 466.15625 484.058594 486.007812 484.8125 C 496.0625 485.0625 505.863281 485.820312 515.664062 487.328125 C 516.417969 486.320312 516.921875 485.566406 517.675781 484.5625 C 524.710938 475.757812 532.753906 464.441406 544.3125 461.675781 C 543.8125 460.917969 543.308594 460.164062 543.058594 459.660156 C 535.015625 461.675781 526.472656 461.675781 518.429688 462.175781 C 508.878906 462.679688 499.582031 462.929688 490.28125 463.183594 C 471.683594 463.6875 453.085938 463.9375 434.488281 464.1875 C 429.210938 464.1875 424.1875 464.441406 418.910156 464.441406 C 416.144531 464.441406 413.378906 464.441406 410.613281 464.691406 C 409.105469 464.691406 407.597656 464.691406 406.089844 464.1875 C 404.835938 463.6875 403.328125 462.929688 402.070312 462.429688 C 401.566406 462.175781 401.316406 461.925781 400.8125 461.675781 C 397.546875 463.6875 393.777344 465.445312 389.757812 467.207031 M 299.28125 434.511719 C 296.265625 435.265625 293.25 435.515625 290.234375 435.769531 C 286.214844 436.019531 282.195312 436.019531 278.171875 436.273438 C 271.636719 436.273438 265.355469 436.273438 258.820312 436.019531 C 256.058594 436.019531 254.296875 434.007812 254.046875 431.996094 C 254.046875 431.996094 253.796875 431.996094 253.796875 432.246094 C 246.003906 438.785156 238.714844 446.082031 232.683594 454.378906 C 247.261719 454.378906 261.835938 454.378906 276.414062 454.632812 C 284.203125 454.632812 291.742188 454.882812 299.535156 455.132812 C 303.304688 455.132812 307.074219 455.636719 310.84375 455.890625 C 310.84375 455.890625 311.09375 455.890625 311.09375 455.890625 C 310.59375 455.386719 310.339844 454.882812 309.839844 454.378906 C 305.0625 448.59375 301.292969 441.804688 299.28125 434.511719 M 204.539062 727.015625 C 203.28125 723.496094 203.785156 719.722656 203.785156 715.949219 C 203.785156 712.175781 203.785156 708.402344 204.035156 704.378906 C 204.035156 696.835938 204.035156 689.539062 204.285156 681.996094 C 204.539062 666.90625 204.539062 651.8125 205.292969 636.722656 C 206.546875 606.792969 208.808594 577.117188 212.328125 547.4375 C 214.085938 533.101562 216.347656 518.765625 219.367188 504.429688 C 219.367188 504.429688 219.367188 504.429688 219.113281 504.179688 C 216.097656 500.15625 212.578125 496.382812 209.816406 492.359375 C 209.5625 492.105469 209.5625 491.601562 209.5625 491.101562 C 209.5625 491.101562 209.3125 491.101562 209.3125 490.847656 C 206.800781 489.339844 209.0625 485.566406 211.574219 487.078125 C 211.324219 486.824219 215.34375 476.511719 215.847656 475.507812 C 217.355469 471.734375 219.113281 467.960938 221.125 464.441406 C 222.382812 462.175781 223.636719 460.164062 224.894531 458.152344 C 225.144531 456.644531 225.898438 455.132812 227.40625 454.378906 C 229.921875 450.859375 232.683594 447.339844 235.449219 444.066406 C 247.261719 430.488281 262.089844 419.671875 278.425781 411.875 C 280.6875 410.867188 283.199219 409.863281 285.460938 408.855469 C 287.972656 407.851562 290.488281 406.34375 293 405.335938 C 297.019531 403.574219 301.042969 403.574219 305.0625 405.585938 C 305.316406 405.839844 305.0625 406.34375 304.8125 406.089844 C 302.300781 405.335938 299.535156 405.335938 297.019531 406.089844 C 294.507812 406.84375 292.496094 408.355469 290.234375 409.613281 C 286.214844 411.875 281.941406 413.636719 277.671875 415.648438 C 272.394531 418.664062 267.113281 421.683594 262.089844 425.207031 C 267.367188 425.457031 272.394531 425.707031 277.671875 425.707031 C 281.441406 425.707031 285.460938 425.707031 289.230469 425.960938 C 291.996094 426.210938 294.757812 425.960938 297.523438 426.460938 C 296.769531 421.933594 296.769531 417.410156 297.773438 412.882812 C 298.027344 411.875 298.277344 410.867188 298.527344 409.613281 C 299.28125 407.347656 301.292969 407.097656 302.800781 407.851562 C 302.800781 408.355469 302.800781 408.355469 303.054688 408.101562 C 304.8125 406.59375 306.320312 404.832031 307.828125 403.074219 C 310.59375 399.300781 313.105469 395.023438 314.863281 390.496094 C 316.625 385.96875 317.878906 381.441406 319.136719 376.664062 C 319.640625 374.402344 320.394531 372.136719 321.148438 369.621094 C 321.648438 367.609375 322.152344 365.347656 323.15625 363.585938 C 323.410156 363.335938 323.910156 363.335938 323.910156 363.585938 C 324.414062 365.847656 324.164062 368.617188 324.164062 370.878906 C 324.164062 373.394531 323.910156 376.160156 323.660156 378.675781 C 322.90625 383.957031 321.902344 389.238281 319.890625 394.269531 C 318.132812 399.046875 315.871094 403.574219 312.601562 407.851562 C 310.59375 410.617188 307.578125 414.140625 304.058594 415.648438 C 303.554688 420.679688 303.554688 425.960938 304.8125 430.988281 C 306.320312 437.527344 309.335938 443.816406 313.609375 449.351562 C 321.902344 461.171875 335.472656 467.457031 349.546875 468.96875 C 364.121094 470.226562 378.949219 466.957031 392.019531 460.667969 C 406.59375 453.625 418.65625 442.558594 429.464844 430.738281 C 435.746094 423.949219 442.28125 417.15625 448.0625 409.863281 C 449.066406 408.605469 450.824219 406.089844 452.585938 403.574219 C 450.574219 403.574219 448.5625 403.324219 446.804688 403.074219 C 443.285156 402.570312 439.515625 401.816406 435.996094 401.058594 C 429.464844 399.300781 422.425781 397.035156 416.648438 393.261719 C 404.332031 385.464844 399.558594 375.40625 398.050781 361.574219 C 397.546875 357.296875 405.085938 356.292969 405.839844 360.566406 C 406.84375 367.359375 408.605469 370.628906 410.613281 376.914062 C 412.625 383.203125 415.640625 385.464844 421.421875 388.738281 C 426.699219 392.007812 432.730469 393.765625 438.761719 395.777344 C 442.03125 396.785156 445.296875 397.789062 448.5625 398.796875 C 450.574219 399.300781 453.085938 400.054688 455.347656 400.808594 C 456.355469 399.804688 457.609375 399.046875 458.867188 398.796875 C 458.867188 398.546875 458.867188 398.546875 459.117188 398.546875 C 459.371094 398.546875 459.871094 398.796875 460.125 398.796875 C 460.375 398.796875 460.878906 398.796875 461.128906 399.046875 C 481.738281 403.574219 501.339844 412.882812 517.925781 425.960938 C 518.679688 426.210938 519.683594 426.714844 520.4375 427.21875 C 520.941406 427.46875 521.191406 427.972656 521.191406 428.476562 C 523.707031 430.488281 526.21875 432.75 528.480469 434.761719 C 547.078125 452.367188 559.140625 476.011719 567.6875 500.40625 C 575.980469 524.300781 581.507812 549.449219 584.777344 574.601562 C 588.042969 600.253906 588.292969 626.410156 583.769531 651.8125 C 581.257812 665.394531 577.488281 678.976562 571.457031 691.554688 C 566.179688 702.871094 557.632812 715.699219 544.3125 717.207031 C 544.3125 717.207031 544.3125 717.207031 544.0625 717.457031 C 538.785156 721.734375 530.996094 718.714844 525.464844 716.199219 C 524.710938 715.699219 523.707031 715.445312 522.953125 714.941406 C 523.453125 716.703125 523.707031 718.464844 523.707031 720.226562 C 523.957031 723.746094 518.929688 723.996094 517.925781 720.980469 C 509.632812 722.488281 501.339844 722.488281 493.046875 722.488281 C 483.746094 722.488281 474.699219 722.238281 465.402344 721.734375 C 447.054688 720.980469 428.710938 719.46875 410.613281 718.96875 C 373.421875 717.710938 336.476562 720.226562 299.28125 721.734375 C 288.980469 721.984375 278.425781 722.488281 268.121094 722.738281 C 257.566406 722.992188 247.011719 723.242188 236.453125 724.5 C 232.683594 725.003906 231.175781 721.230469 232.183594 718.96875 C 231.929688 717.457031 232.183594 715.699219 232.433594 713.683594 C 232.683594 710.164062 232.9375 706.644531 233.1875 703.121094 C 233.691406 696.332031 234.191406 689.539062 234.695312 682.75 C 235.699219 668.917969 236.453125 655.085938 237.207031 641.25 C 238.714844 613.835938 239.722656 586.171875 240.726562 558.503906 C 240.976562 551.714844 241.230469 545.175781 241.480469 538.382812 C 240.976562 537.628906 240.726562 537.125 240.222656 536.371094 C 238.96875 534.109375 237.710938 532.097656 236.453125 529.832031 C 233.941406 525.558594 231.175781 521.28125 228.414062 517.003906 C 226.152344 513.484375 223.636719 509.710938 221.125 506.191406 C 217.859375 533.101562 215.09375 560.015625 213.835938 586.925781 C 212.328125 616.601562 211.574219 646.53125 211.324219 676.210938 C 211.324219 684.511719 211.070312 692.808594 211.070312 701.109375 C 211.070312 705.386719 211.070312 709.660156 211.070312 714.1875 C 211.070312 718.210938 211.824219 722.992188 210.316406 726.765625 C 208.558594 729.277344 205.542969 729.277344 204.539062 727.015625 Z M 204.539062 727.015625 " fill-opacity="1" fill-rule="evenodd"/><path fill="#ffffff" d="M 283.863281 202.847656 C 299.695312 180.964844 329.097656 174.425781 354.734375 179.960938 C 404.492188 189.011719 451.992188 226.992188 460.789062 278.800781 C 474.609375 309.988281 465.8125 359.535156 425.855469 363.058594 C 420.074219 363.308594 414.546875 362.050781 408.765625 362.804688 C 374.085938 368.339844 332.867188 392.230469 302.207031 364.0625 C 300.699219 365.070312 298.691406 365.824219 296.929688 365.070312 C 283.863281 360.039062 283.109375 345.453125 282.101562 333.378906 C 280.59375 317.785156 279.339844 302.191406 278.082031 286.597656 C 277.578125 259.6875 267.023438 225.984375 283.863281 202.847656 Z M 283.863281 202.847656 " fill-opacity="1" fill-rule="evenodd"/><path fill="#000000" d="M 380.367188 146.761719 C 359.507812 145.753906 320.804688 155.3125 302.460938 166.628906 C 272.804688 184.988281 270.292969 221.457031 271.546875 227.746094 C 272.050781 230.261719 273.558594 232.523438 275.820312 231.769531 C 273.808594 248.371094 274.0625 257.925781 273.808594 274.777344 L 273.558594 285.84375 C 273.308594 293.390625 273.308594 300.683594 273.308594 308.226562 C 272.554688 307.976562 271.800781 308.226562 271.546875 308.984375 C 271.546875 309.234375 271.800781 309.234375 271.800781 309.234375 C 273.054688 307.976562 272.300781 310.742188 271.800781 311.246094 C 271.046875 312 270.039062 312.753906 269.285156 313.257812 L 267.277344 315.019531 L 265.265625 316.78125 C 262.753906 319.042969 260.238281 321.308594 257.726562 323.570312 L 256.972656 324.324219 C 252.449219 328.851562 247.171875 333.128906 244.40625 338.914062 C 241.894531 344.445312 242.648438 350.734375 246.917969 355.007812 C 248.425781 356.519531 250.4375 357.777344 252.449219 358.78125 C 248.929688 364.566406 248.425781 372.363281 252.195312 378.398438 C 255.964844 384.4375 263.003906 387.707031 270.039062 387.203125 C 270.292969 387.957031 270.542969 388.960938 271.046875 389.71875 C 273.808594 394.746094 279.339844 395.503906 284.363281 395.25 L 284.617188 395.25 C 296.175781 394.496094 307.484375 391.730469 317.539062 385.945312 C 321.058594 386.195312 324.324219 383.179688 324.828125 380.160156 C 326.585938 380.160156 328.597656 379.910156 330.355469 379.65625 C 335.882812 378.902344 341.914062 377.894531 346.691406 374.878906 C 347.445312 374.375 347.195312 373.371094 346.1875 373.371094 C 340.15625 373.117188 334.125 373.621094 328.09375 373.117188 C 322.566406 372.613281 316.535156 371.105469 311.507812 368.84375 C 302.207031 365.070312 294.167969 358.78125 289.894531 349.726562 C 284.113281 338.15625 284.617188 324.578125 284.113281 312 C 283.359375 298.167969 282.605469 284.585938 281.601562 270.753906 L 281.097656 264.214844 C 280.09375 251.386719 279.589844 244.597656 277.328125 231.265625 C 283.863281 231.769531 311.757812 221.710938 320.554688 205.363281 C 336.890625 240.320312 420.324219 225.984375 424.09375 279.808594 C 424.09375 280.3125 424.847656 280.058594 424.847656 279.808594 L 424.847656 278.550781 C 424.847656 278.046875 424.847656 277.292969 424.847656 276.789062 L 424.847656 276.285156 L 426.105469 276.285156 C 426.105469 276.539062 426.355469 276.539062 426.355469 276.285156 C 427.613281 272.765625 433.394531 274.023438 436.160156 274.777344 C 438.421875 275.53125 440.683594 276.789062 442.691406 278.046875 C 446.714844 280.8125 449.730469 284.839844 450.734375 289.617188 C 452.746094 298.671875 446.714844 308.226562 439.175781 312.503906 C 434.398438 315.269531 428.871094 317.03125 424.347656 320.300781 C 420.324219 323.066406 416.304688 326.335938 413.039062 330.109375 C 399.71875 344.949219 391.925781 367.082031 398.210938 386.699219 C 398.714844 388.207031 399.96875 389.96875 401.730469 390.21875 C 404.492188 390.722656 407.257812 390.21875 408.765625 387.453125 C 409.269531 386.195312 409.519531 384.9375 409.519531 383.933594 C 410.523438 387.707031 414.042969 391.226562 417.308594 392.734375 C 421.582031 394.496094 426.609375 393.992188 430.378906 391.730469 L 430.882812 391.980469 C 437.164062 396.507812 444.199219 400.785156 452.242188 400.027344 C 458.023438 399.527344 463.804688 396.507812 467.070312 391.730469 C 471.34375 394.246094 475.867188 396.003906 480.640625 397.261719 L 481.144531 397.515625 C 487.679688 399.273438 495.972656 400.785156 502.003906 397.261719 C 507.78125 393.742188 509.792969 386.195312 508.285156 379.910156 C 508.035156 379.152344 508.035156 378.398438 507.78125 377.644531 C 512.054688 377.894531 516.578125 377.394531 520.601562 376.136719 C 524.871094 374.878906 528.894531 372.363281 530.902344 368.085938 C 533.164062 363.558594 532.664062 358.277344 530.902344 353.5 C 528.140625 345.953125 523.867188 339.164062 518.339844 333.378906 C 513.0625 327.847656 506.777344 323.066406 500.242188 319.042969 L 499.238281 318.289062 C 493.207031 314.769531 486.171875 310.492188 479.132812 310.742188 C 479.132812 310.742188 479.132812 310.492188 479.132812 310.492188 C 480.136719 302.695312 480.136719 294.648438 480.390625 286.851562 C 480.640625 279.554688 480.890625 272.261719 481.144531 264.96875 C 481.394531 252.644531 481.394531 240.320312 479.636719 227.996094 C 478.128906 217.183594 475.613281 206.617188 470.839844 196.558594 C 465.8125 185.996094 458.527344 177.191406 449.476562 170.148438 C 429.625 155.5625 404.492188 148.015625 380.367188 146.761719 Z M 445.707031 291.878906 C 443.699219 287.855469 438.921875 286.597656 434.652344 287.351562 C 428.871094 288.359375 424.847656 293.390625 421.332031 297.917969 C 417.8125 302.445312 425.351562 306.972656 427.113281 302.445312 L 427.613281 301.4375 C 429.121094 297.917969 430.882812 294.144531 434.148438 291.878906 C 437.414062 289.367188 442.191406 289.113281 445.207031 292.382812 C 445.457031 292.382812 445.707031 292.132812 445.707031 291.878906 Z M 445.707031 291.878906 " fill-opacity="1" fill-rule="evenodd"/><path fill="#000000" d="M 358.023438 311.777344 C 348.976562 310.769531 340.179688 313.539062 331.132812 314.796875 C 326.355469 315.550781 321.832031 316.054688 317.058594 316.304688 C 316.054688 316.304688 315.046875 316.304688 314.292969 316.304688 C 314.292969 315.550781 313.792969 314.796875 312.785156 314.292969 C 310.777344 313.285156 309.015625 313.035156 306.753906 313.035156 C 304.746094 313.035156 302.480469 313.285156 300.472656 313.789062 C 296.703125 314.542969 292.933594 316.054688 290.167969 318.820312 C 283.886719 325.105469 284.890625 335.167969 289.664062 342.210938 C 299.71875 356.292969 318.316406 357.050781 334.398438 356.796875 L 335.90625 356.796875 C 350.484375 356.546875 371.089844 358.808594 377.625 342.210938 C 380.136719 336.171875 379.636719 329.132812 376.871094 323.347656 C 372.851562 316.304688 365.3125 312.53125 358.023438 311.777344 Z M 312.785156 335.417969 C 319.570312 335.671875 326.355469 335.921875 332.890625 335.921875 C 332.640625 337.683594 332.390625 339.441406 332.136719 340.953125 C 331.886719 342.210938 331.632812 343.71875 331.632812 344.976562 C 331.632812 345.480469 331.132812 346.484375 331.382812 346.988281 L 331.382812 347.238281 C 331.132812 347.492188 330.628906 347.742188 330.378906 347.996094 C 330.378906 347.996094 330.125 348.246094 330.125 348.496094 C 324.847656 348.496094 319.320312 348.496094 314.042969 347.492188 C 314.042969 346.738281 313.792969 346.484375 313.289062 345.984375 C 313.039062 343.71875 313.039062 341.457031 313.039062 339.191406 C 312.785156 337.933594 312.785156 336.675781 312.785156 335.417969 Z M 337.917969 335.921875 C 342.691406 335.921875 347.46875 336.171875 352.242188 335.921875 L 354.503906 335.921875 C 354 338.4375 353.5 340.953125 353.246094 343.46875 C 352.746094 345.984375 355.007812 347.742188 357.015625 347.742188 C 356.765625 347.742188 356.515625 347.742188 356.261719 347.742188 C 349.980469 348.496094 343.699219 348.496094 337.414062 348.496094 C 337.917969 346.484375 337.667969 344.222656 337.667969 342.460938 L 337.667969 342.210938 C 337.917969 340.199219 337.917969 337.933594 337.917969 335.921875 Z M 370.589844 335.417969 C 370.335938 336.675781 370.085938 337.933594 369.582031 339.191406 C 367.574219 344.222656 362.796875 346.484375 357.769531 347.492188 C 358.523438 347.238281 359.277344 346.484375 359.53125 345.226562 C 360.03125 342.210938 360.285156 338.941406 360.285156 335.921875 C 363.804688 335.921875 367.070312 335.921875 370.589844 335.417969 Z M 294.691406 334.414062 C 296.953125 334.917969 299.96875 334.664062 302.480469 334.917969 C 304.746094 334.917969 307.007812 335.167969 309.269531 335.167969 C 309.269531 336.675781 309.015625 338.1875 309.015625 339.945312 C 308.765625 341.957031 308.765625 343.96875 308.515625 345.984375 C 303.988281 344.472656 299.96875 341.957031 296.703125 337.933594 C 295.695312 336.929688 295.195312 335.671875 294.691406 334.414062 Z M 359.027344 319.824219 C 363.050781 320.832031 367.070312 322.84375 369.082031 326.617188 C 370.335938 328.878906 370.839844 331.394531 370.839844 334.160156 C 367.320312 333.660156 363.804688 333.660156 360.285156 333.40625 C 360.285156 332.652344 360.285156 332.148438 360.285156 331.394531 L 360.285156 329.886719 C 360.03125 326.867188 360.03125 322.84375 359.027344 319.824219 Z M 337.667969 320.078125 L 339.425781 319.824219 C 344.453125 319.324219 349.476562 318.566406 354.503906 319.070312 C 355.257812 319.070312 356.011719 319.324219 356.765625 319.324219 C 355.761719 322.59375 356.011719 326.363281 355.507812 329.382812 C 355.257812 330.640625 355.257812 331.898438 355.007812 333.15625 L 354.253906 333.15625 C 348.976562 332.902344 343.445312 332.652344 338.167969 332.402344 C 338.167969 331.394531 338.167969 330.390625 338.167969 329.382812 L 338.167969 328.375 C 337.917969 325.863281 338.167969 322.84375 337.667969 320.078125 Z M 312.285156 319.824219 C 317.5625 320.582031 323.089844 320.832031 328.367188 320.832031 C 330.378906 320.832031 332.390625 320.832031 334.652344 320.582031 C 334.398438 321.585938 334.398438 322.84375 334.398438 323.851562 C 334.148438 326.113281 333.898438 328.125 333.644531 330.390625 L 333.394531 332.402344 C 326.609375 331.898438 320.074219 331.644531 313.289062 331.394531 L 312.285156 331.394531 L 312.03125 327.621094 C 311.78125 325.105469 311.78125 322.59375 311.277344 320.328125 L 311.53125 320.328125 C 312.03125 320.078125 312.285156 319.824219 312.285156 319.824219 Z M 310.023438 320.582031 C 309.769531 324.101562 309.769531 327.621094 309.519531 331.144531 L 304.996094 330.890625 C 304.242188 330.890625 303.488281 330.890625 302.734375 330.890625 C 299.96875 330.640625 296.449219 329.632812 293.6875 330.640625 C 293.433594 328.125 294.1875 325.609375 296.449219 323.851562 C 300.472656 320.832031 305.5 321.835938 310.023438 320.582031 Z M 325.101562 289.644531 C 318.566406 285.871094 302.230469 282.097656 301.226562 293.921875 C 300.722656 299.203125 304.746094 303.730469 309.519531 305.742188 L 309.769531 305.742188 C 314.042969 307.5 321.832031 309.515625 325.855469 305.742188 C 329.121094 302.472656 324.847656 296.6875 320.828125 299.203125 C 318.816406 300.460938 314.546875 299.453125 312.285156 298.949219 L 312.03125 298.949219 C 309.519531 298.195312 306.253906 295.933594 307.257812 292.914062 C 308.261719 290.148438 312.03125 289.894531 314.292969 289.644531 C 317.8125 289.394531 321.332031 290.398438 324.847656 290.652344 C 325.351562 290.652344 325.601562 289.894531 325.101562 289.644531 Z M 297.957031 270.78125 C 289.164062 270.277344 283.632812 280.085938 285.644531 287.882812 C 285.894531 289.140625 287.402344 290.652344 288.910156 290.398438 L 289.164062 290.398438 C 289.414062 290.398438 289.664062 290.398438 289.664062 290.398438 C 291.171875 289.894531 292.429688 288.636719 292.179688 287.128906 L 292.179688 286.625 C 291.925781 282.855469 292.429688 278.578125 296.703125 277.570312 C 300.472656 276.816406 302.480469 280.339844 302.734375 283.859375 C 302.734375 284.363281 303.488281 284.867188 303.988281 284.613281 C 306.753906 282.855469 307.257812 279.585938 306.253906 276.816406 C 305.246094 273.046875 301.980469 271.03125 297.957031 270.78125 Z M 363.804688 272.792969 C 357.269531 270.53125 350.484375 274.050781 347.214844 279.835938 C 346.210938 280.085938 344.953125 281.09375 345.207031 282.351562 C 345.457031 284.113281 345.707031 285.367188 346.964844 286.878906 C 348.976562 289.140625 352.746094 287.882812 353.5 285.117188 C 354.503906 281.597656 358.273438 279.332031 361.792969 280.589844 C 365.8125 282.097656 365.8125 286.375 368.578125 288.890625 C 368.828125 289.140625 369.332031 289.140625 369.835938 289.140625 C 372.851562 287.632812 372.347656 283.105469 371.34375 280.589844 C 370.085938 277.070312 367.320312 274.050781 363.804688 272.792969 Z M 372.347656 253.425781 C 367.070312 248.144531 353.5 242.863281 349.980469 252.671875 C 349.226562 254.433594 350.734375 256.949219 352.746094 257.453125 C 356.011719 258.207031 358.777344 256.695312 362.042969 256.949219 C 364.558594 257.199219 367.320312 257.953125 369.332031 259.714844 C 375.113281 264.242188 376.367188 271.535156 380.136719 277.070312 C 380.390625 277.320312 380.640625 277.320312 380.640625 276.816406 C 381.644531 268.769531 378.128906 259.210938 372.347656 253.425781 Z M 304.492188 248.144531 C 300.972656 246.886719 297.203125 247.140625 293.6875 248.144531 C 290.167969 249.152344 286.902344 251.414062 284.386719 253.929688 C 283.382812 255.1875 282.125 256.445312 281.371094 257.953125 C 280.871094 258.707031 280.367188 260.21875 279.863281 261.222656 C 277.101562 262.734375 276.09375 266.503906 278.355469 269.019531 L 278.609375 269.273438 C 280.367188 270.78125 282.378906 271.285156 284.136719 270.78125 C 288.15625 269.523438 288.660156 266.503906 289.917969 262.984375 C 290.921875 260.722656 292.429688 258.707031 294.1875 257.453125 C 298.710938 253.929688 306 252.925781 311.53125 254.683594 C 311.78125 254.683594 312.03125 254.433594 312.03125 254.183594 C 311.027344 252.925781 310.523438 251.667969 309.015625 250.660156 C 307.761719 249.402344 306 248.648438 304.492188 248.144531 Z M 304.492188 248.144531 " fill-opacity="1" fill-rule="evenodd"/><path fill="#000000" d="M 287.558594 249.714844 C 274.992188 249.714844 267.957031 252.480469 265.445312 252.480469 C 264.4375 252.480469 263.433594 252.734375 262.429688 252.984375 C 258.660156 254.492188 258.15625 258.265625 260.167969 260.78125 C 260.417969 265.8125 259.664062 271.847656 260.921875 277.128906 C 262.429688 298.757812 272.480469 302.53125 278.261719 303.789062 C 281.277344 304.542969 284.542969 304.796875 287.8125 304.039062 C 293.089844 303.789062 298.367188 302.28125 302.890625 299.261719 C 309.171875 295.238281 313.695312 289.203125 315.203125 281.65625 C 315.957031 278.136719 316.210938 274.613281 315.957031 271.09375 L 315.957031 270.589844 C 317.96875 269.585938 320.230469 269.332031 322.742188 269.332031 C 324 269.332031 325.003906 269.332031 326.261719 269.332031 C 327.265625 269.332031 328.523438 269.585938 329.527344 269.835938 C 330.785156 270.085938 331.789062 270.839844 332.796875 271.597656 L 332.796875 272.855469 C 333.046875 276.125 333.550781 279.644531 334.050781 282.914062 C 335.058594 287.691406 336.566406 292.472656 340.082031 295.992188 C 341.339844 297.753906 342.597656 299.261719 344.355469 300.519531 C 350.640625 305.296875 359.433594 307.308594 367.226562 306.554688 C 382.808594 305.550781 392.105469 292.972656 394.367188 287.441406 L 394.617188 287.191406 C 396.125 283.164062 397.382812 277.882812 402.410156 276.878906 L 403.414062 276.625 C 405.675781 276.125 407.6875 275.621094 408.945312 273.355469 C 409.445312 272.351562 409.699219 271.34375 409.949219 270.339844 C 410.703125 270.339844 411.457031 270.339844 412.210938 270.589844 C 418.242188 271.847656 454.683594 272.855469 457.449219 272.855469 C 457.449219 272.855469 462.976562 275.117188 465.488281 273.355469 C 466.996094 272.097656 467.75 270.339844 466.746094 268.578125 C 465.488281 265.8125 459.207031 264.050781 456.441406 263.546875 C 456.441406 263.546875 411.707031 263.800781 408.441406 263.296875 C 406.429688 261.285156 402.914062 261.535156 399.898438 261.285156 C 397.382812 259.523438 393.863281 258.265625 391.351562 257.511719 C 390.847656 257.261719 390.347656 257.007812 389.59375 257.007812 C 384.566406 255.25 379.289062 254.242188 374.011719 253.738281 C 368.480469 253.234375 363.203125 253.488281 357.675781 254.242188 C 355.414062 254.492188 353.152344 254.996094 350.890625 255.5 C 346.871094 256.003906 342.847656 257.007812 338.828125 258.015625 L 338.074219 258.265625 C 333.800781 259.273438 329.527344 260.277344 325.003906 259.523438 C 321.488281 259.019531 317.96875 257.511719 314.703125 256.003906 L 314.199219 255.75 C 306.910156 252.230469 295.601562 249.714844 287.558594 249.714844 Z M 351.140625 261.789062 C 353.90625 261.285156 354.910156 265.308594 352.148438 265.8125 C 350.136719 266.316406 348.628906 267.070312 347.625 268.828125 L 347.625 269.082031 C 346.117188 271.34375 342.597656 269.332031 343.855469 266.816406 C 345.613281 264.300781 348.125 262.542969 351.140625 261.789062 Z M 272.984375 259.273438 C 273.988281 258.519531 275.246094 259.019531 276 260.027344 C 276.5 261.03125 276.25 262.289062 275.246094 262.792969 C 274.492188 263.296875 273.738281 264.300781 273.484375 265.308594 L 273.484375 265.558594 C 273.484375 268.328125 269.214844 268.328125 269.214844 265.558594 C 269.464844 263.046875 270.972656 260.78125 272.984375 259.273438 Z M 272.984375 259.273438 " fill-opacity="1" fill-rule="evenodd"/></svg>